<svg xmlns="http://www.w3.org/2000/svg" viewBox="0 0 512 512" fill="none">
  <g>
    <!-- Dragon fruit body -->
    <ellipse cx="300" cy="300" rx="140" ry="180" fill="#E91E63" transform="rotate(-10 300 300)"/>
    <ellipse cx="300" cy="300" rx="120" ry="160" fill="#C2185B" transform="rotate(-10 300 300)"/>
    <!-- Scales / leaves -->
    <path d="M380 160 C400 120, 420 110, 410 90 C380 100, 370 130, 380 160Z" fill="#8BC34A"/>
    <path d="M420 200 C450 170, 470 160, 460 140 C430 150, 420 180, 420 200Z" fill="#689F38"/>
    <path d="M430 260 C460 240, 480 230, 470 210 C440 220, 430 240, 430 260Z" fill="#8BC34A"/>
    <path d="M420 320 C450 310, 470 300, 460 280 C435 290, 425 305, 420 320Z" fill="#689F38"/>
    <path d="M380 380 C400 370, 420 350, 410 340 C390 345, 380 360, 380 380Z" fill="#8BC34A"/>
    <path d="M200 180 C180 150, 170 130, 180 110 C200 120, 210 150, 200 180Z" fill="#689F38"/>
    <path d="M170 240 C150 210, 140 200, 150 180 C170 190, 175 215, 170 240Z" fill="#8BC34A"/>
    <path d="M170 310 C150 290, 130 280, 140 260 C160 270, 170 290, 170 310Z" fill="#689F38"/>
    <path d="M190 380 C170 370, 150 360, 155 340 C175 345, 185 360, 190 380Z" fill="#8BC34A"/>
    <!-- Cross-section (cut half) -->
    <ellipse cx="180" cy="330" rx="100" ry="130" fill="#E91E63" transform="rotate(15 180 330)"/>
    <ellipse cx="180" cy="330" rx="85" ry="115" fill="#FAFAFA" transform="rotate(15 180 330)"/>
    <!-- Seeds -->
    <circle cx="160" cy="290" r="5" fill="#3E2723"/>
    <circle cx="190" cy="280" r="5" fill="#3E2723"/>
    <circle cx="175" cy="310" r="5" fill="#3E2723"/>
    <circle cx="200" cy="305" r="5" fill="#3E2723"/>
    <circle cx="155" cy="335" r="5" fill="#3E2723"/>
    <circle cx="185" cy="340" r="5" fill="#3E2723"/>
    <circle cx="210" cy="330" r="5" fill="#3E2723"/>
    <circle cx="170" cy="360" r="5" fill="#3E2723"/>
    <circle cx="200" cy="355" r="5" fill="#3E2723"/>
    <circle cx="145" cy="310" r="4" fill="#3E2723"/>
    <circle cx="220" cy="315" r="4" fill="#3E2723"/>
    <circle cx="165" cy="380" r="4" fill="#3E2723"/>
    <circle cx="195" cy="375" r="4" fill="#3E2723"/>
    <!-- Cross-section leaves -->
    <path d="M120 220 C100 190, 90 170, 100 155 C120 165, 125 195, 120 220Z" fill="#8BC34A"/>
    <path d="M90 280 C70 260, 60 240, 70 225 C85 235, 90 260, 90 280Z" fill="#689F38"/>
    <path d="M80 340 C60 325, 50 310, 60 295 C75 305, 80 320, 80 340Z" fill="#8BC34A"/>
  </g>
</svg>
